<svg width="16" height="15" viewBox="0 0 16 15" fill="none" xmlns="http://www.w3.org/2000/svg">
<path d="M7.33333 14.6667C11.3767 14.6667 14.6667 11.377 14.6667 7.33333C14.6667 6.63539 14.5692 5.94759 14.3763 5.28889C14.2813 4.96498 13.9431 4.77893 13.6183 4.87397C13.2941 4.96871 13.1086 5.30813 13.2033 5.63204C13.3631 6.17929 13.4444 6.75191 13.4444 7.33333C13.4444 10.7029 10.7029 13.4444 7.33333 13.4444C3.96372 13.4444 1.22222 10.7029 1.22222 7.33333C1.22222 3.96372 3.96372 1.22222 7.33333 1.22222C8.55794 1.22222 9.73615 1.5803 10.7405 2.2575C11.0201 2.44623 11.4003 2.37208 11.5887 2.09249C11.7773 1.8126 11.7038 1.43274 11.4239 1.24415C10.2169 0.430284 8.80248 0 7.33333 0C3.28994 0 0 3.28965 0 7.33333C0 11.377 3.28994 14.6667 7.33333 14.6667Z" fill="#FF5A30"/>
<path d="M14.1952 0.861857L7.33321 7.72351L5.1379 5.52852C4.87748 5.26827 4.45561 5.26827 4.19519 5.52852C3.93494 5.78894 3.93494 6.21082 4.19519 6.47123L6.86186 9.1379C6.99223 9.26827 7.16248 9.33321 7.33321 9.33321C7.50395 9.33321 7.67419 9.26827 7.80456 9.1379L15.1379 1.80457C15.3982 1.54415 15.3982 1.12227 15.1379 0.861857C14.8775 0.601603 14.4556 0.601603 14.1952 0.861857Z" fill="#FF5A30"/>
</svg>
